# AST/ASF file generated using VICON BodyLanguage
# -----------------------------------------------
:version 1.10
:name VICON
:units
  mass 1.0
  length 0.45
  angle deg
:documentation
   .ast/.asf automatically generated from VICON data using
   VICON BodyBuilder and BodyLanguage model FoxedUp or BRILLIANT.MOD
:root
   order TX TY TZ RX RY RZ
   axis XYZ
   position 0 0 0  
   orientation 0 0 0 
:bonedata
  begin
     id 1 
     name lhipjoint
     direction 0.623415 -0.642378 0.445763 
     length 2.49859 
     axis 0 0 0  XYZ
  end
  begin
     id 2 
     name lfemur
     direction 0.34202 -0.939693 0  
     length 6.69689  
     axis 0 0 20  XYZ
    dof rx ry rz
    limits (-160.0 20.0)
           (-70.0 70.0)
           (-60.0 70.0)
  end
  begin
     id 3 
     name ltibia
     direction 0.34202 -0.939693 0   
     length 7.37574   
     axis 0 0 20   XYZ
    dof rx
    limits (-10.0 170.0)
  end
  begin
     id 4 
     name lfoot
     direction 0.084323 -0.231675 0.969132   
     length 2.09111   
     axis -90 7.62852e-016 20   XYZ
    dof rx rz
    limits (-45.0 90.0)
           (-70.0 20.0)
  end
  begin
     id 5 
     name ltoes
     direction 1.5357e-011 -4.21957e-011 1   
     length 1.04989   
     axis -90 7.62852e-016 20   XYZ
    dof rx
    limits (-90.0 20.0)
  end
  begin
     id 6 
     name rhipjoint
     direction -0.605402 -0.653903 0.45376   
     length 2.45455  
     axis 0 0 0  XYZ 
  end
  begin
     id 7 
     name rfemur
     direction -0.34202 -0.939693 0   
     length 6.64523   
     axis 0 0 -20   XYZ
    dof rx ry rz
    limits (-160.0 20.0)
           (-70.0 70.0)
           (-70.0 60.0)
  end
  begin
     id 8 
     name rtibia
     direction -0.34202 -0.939693 0   
     length 7.3339   
     axis 0 0 -20   XYZ
    dof rx
    limits (-10.0 170.0)
 end
 begin
     id 9 
     name rfoot
     direction -0.120854 -0.332043 0.93549   
     length 2.23135  
     axis -90 -7.62852e-016 -20   XYZ
    dof rx rz
    limits (-45.0 90.0)
           (-20.0 70.0)
  end
  begin
     id 10 
     name rtoes
     direction -1.53563e-011 -4.21914e-011 1   
     length 1.10614   
     axis -90 -7.62852e-016 -20   XYZ
    dof rx
    limits (-90.0 20.0)
  end
  begin
     id 11 
     name lowerback
     direction 0.0319682 0.998615 -0.0417941   
     length 2.02718   
     axis 0 0 0   XYZ
    dof rx ry rz
    limits (-20.0 45.0)
           (-30.0 30.0)
           (-30.0 30.0)
  end
  begin
     id 12 
     name upperback
     direction 7.63181e-005 0.995808 0.0914691   
     length 1.97539   
     axis 0 0 0   XYZ
    dof rx ry rz
    limits (-20.0 45.0)
           (-30.0 30.0)
           (-30.0 30.0)
  end
  begin
     id 13 
     name thorax
     direction -0.016423 0.993627 0.111514   
     length 2.00349   
     axis 0 0 0   XYZ
    dof rx ry rz
    limits (-20.0 45.0)
           (-30.0 30.0)
           (-30.0 30.0)
  end
  begin
     id 14 
     name lowerneck
     direction -0.174763 0.981668 -0.0760716   
     length 1.71436   
     axis 0 0 0   XYZ
    dof rx ry rz
    limits (-20.0 45.0)
           (-30.0 30.0)
           (-30.0 30.0)
  end
  begin
     id 15 
     name upperneck
     direction 0.345458 0.934587 -0.0848868   
     length 1.72805   
     axis 0 0 0   XYZ
    dof rx ry rz
    limits (-20.0 45.0)
           (-30.0 30.0)
           (-30.0 30.0)
  end
  begin
     id 16
     name head
     direction 0.13001 0.989848 -0.0574291  
     length 1.767  
     axis 0 0 0   XYZ
    dof rx ry rz
    limits (-20.0 45.0)
           (-30.0 30.0)
           (-30.0 30.0)
  end
  begin
     id 17 
     name lclavicle
     direction 0.952951 0.290122 0.0878234  
     length 3.54654  
     axis 0 0 0   XYZ
    dof ry rz
    limits (-20.0 10.0)
           (0.0 20.0)
  end
  begin
     id 18 
     name lhumerus
     direction 1 -4.48957e-011 -4.56525e-028   
     length 5.19807   
     axis 180 -30 -90   XYZ
    dof rx ry rz
    limits (-60.0 90.0)
           (-90.0 90.0)
           (-90.0 90.0)
  end
  begin
     id 19
     name lradius
     direction 1 -4.48979e-011 -2.0317e-027   
     length 3.0937   
     axis 180 -30 -90   XYZ
    dof rx
    limits (-10.0 170.0)
  end
  begin
     id 20
     name lwrist
     direction 1 -4.48953e-011 -3.05809e-027   
     length 1.54685   
     axis 8.48514e-016 90 90   XYZ
    dof ry
    limits (-180.0 0.0)
 end
  begin
     id 21 
     name lhand
     direction 1 -4.48952e-011 -6.11639e-027   
     length 0.672632   
     axis 3.9013e-015 90 90   XYZ
    dof rx rz
    limits (-90.0 90.0)
           (-45.0 45.0)
  end
  begin
     id 22 
     name lfingers
     direction 1 -4.48925e-011 -1.22426e-026   
     length 0.542293   
     axis 7.80276e-015 90 90   XYZ
    dof rx
    limits (0.0 90.0)
  end
  begin
     id 23
     name lthumb
     direction 0.707107 -6.3486e-011 0.707107   
     length 0.778628   
     axis -90 45 5.37419e-014   XYZ
    dof rx rz
    limits (-45.0 45.0)
           (-45.0 45.0)
  end
  begin
     id 24 
     name rclavicle
     direction -0.960732 0.273675 -0.0457849   
     length 3.52079  
     axis 0 0 0   XYZ 
    dof ry rz
    limits (-10.0 20.0)
           (-20.0 0.0)
  end
  begin
     id 25 
     name rhumerus
     direction -1 -4.48976e-011 -1.63613e-027  
     length 5.45222   
     axis 180 30 90   XYZ
    dof rx ry rz
    limits (-90.0 60.0)
           (-90.0 90.0)
           (-90.0 90.0)
  end
  begin
     id 26 
     name rradius
     direction -1 -4.48957e-011 -7.00033e-028   
     length 3.01284   
     axis 180 30 90   XYZ
    dof rx
    limits (-10.0 170.0)
  end
  begin
     id 27 
     name rwrist
     direction -1 -4.48983e-011 -3.05543e-027   
     length 1.50642   
     axis 8.48514e-016 -90 -90   XYZ
    dof ry
    limits (-180.0 0.0)
  end
  begin
     id 28
     name rhand
     direction -1 -4.48984e-011 -6.11072e-027   
     length 0.622296   
     axis 3.9013e-015 -90 -90   XYZ
    dof rx rz
    limits (-90.0 90.0)
           (-45.0 45.0)
  end
  begin
     id 29
     name rfingers
     direction -1 -4.48865e-011 -1.22637e-026   
     length 0.501711   
     axis 7.80276e-015 -90 -90   XYZ
    dof rx
    limits (0.0 90.0)
  end
  begin
     id 30
     name rthumb
     direction -0.707107 -6.34932e-011 0.707107   
     length 0.72036   
     axis -90 -45 -5.37419e-014   XYZ
    dof rx rz
    limits (-45.0 45.0)
           (-45.0 45.0)
  end
:hierarchy
  begin
    root lhipjoint rhipjoint lowerback
    lhipjoint lfemur
    lfemur ltibia
    ltibia lfoot
    lfoot ltoes
    rhipjoint rfemur
    rfemur rtibia
    rtibia rfoot
    rfoot rtoes
    lowerback upperback
    upperback thorax
    thorax lowerneck lclavicle rclavicle
    lowerneck upperneck
    upperneck head
    lclavicle lhumerus
    lhumerus lradius
    lradius lwrist
    lwrist lhand lthumb
    lhand lfingers
    rclavicle rhumerus
    rhumerus rradius
    rradius rwrist
    rwrist rhand rthumb
    rhand rfingers
  end

#!OML:ASF H:\Not Pregnant\Project 1\Capture day 1\Session 1\non-pregnant.ASF
:FULLY-SPECIFIED
:DEGREES
108
root -5.43146 15.8482 30.0124 -170.358 -11.2762 -177.465
lowerback -5.28324 -0.126084 1.02988
upperback -7.24361 -0.799577 0.25055
thorax -4.53928 -0.706707 -0.305735
lowerneck 25.8703 -7.13394 -30.4059
upperneck -13.83 -20.433 43.4853
head 0.429353 -14.4355 23.9433
rclavicle -8.22472e-015 -5.76476e-015
rhumerus -42.245 -17.7429 -73.2609
rradius 23.5095
rwrist 27.3426
rhand -7.06036 -2.00812
rfingers 7.12502
rthumb 18.8128 -31.1184
lclavicle -8.22472e-015 -5.76476e-015
lhumerus -47.3073 -7.00806 91.8988
lradius 30.9958
lwrist 34.3947
lhand -13.8096 -8.76929
lfingers 7.12502
lthumb 12.3127 20.8482
rfemur -34.7105 0.435989 28.727
rtibia 33.0443
rfoot -10.4451 11.3118
rtoes -0.966774
lfemur 0.669382 -1.56344 -14.5988
ltibia 35.6847
lfoot 27.7846 -18.7649
ltoes -4.0217
109
root -5.42942 15.8556 29.8855 -170.544 -11.4175 -177.263
lowerback -5.06483 -0.121437 1.29435
upperback -7.2332 -0.785941 0.279099
thorax -4.65372 -0.708915 -0.421152
lowerneck 25.8721 -7.16061 -30.4202
upperneck -13.7612 -20.4801 43.4521
head 0.464858 -14.4513 23.8992
rclavicle 1.20762e-014 1.78906e-014
rhumerus -41.8151 -17.0599 -73.8437
rradius 23.8941
rwrist 26.7976
rhand -7.19514 -2.01227
rfingers 7.12502
rthumb 18.6831 -31.1351
lclavicle 1.20762e-014 1.78906e-014
lhumerus -47.2338 -7.19205 91.9166
lradius 31.0721
lwrist 34.3884
lhand -13.7147 -8.69413
lfingers 7.12502
lthumb 12.4042 20.9178
rfemur -33.9784 -0.00560408 29.1369
rtibia 32.98
rfoot -11.0567 11.5798
rtoes -0.702277
lfemur -0.485995 -1.35778 -14.1127
ltibia 37.9157
lfoot 27.5354 -19.4359
ltoes -4.16663
110
root -5.42807 15.8618 29.7621 -170.745 -11.5737 -177.009
lowerback -4.81159 -0.111435 1.62777
upperback -7.21665 -0.762224 0.317888
thorax -4.78211 -0.708881 -0.564143
lowerneck 25.8692 -7.19641 -30.4285
upperneck -13.7203 -20.5333 43.4332
head 0.498837 -14.4722 23.8619
rclavicle -1.11816e-014 -5.96354e-016
rhumerus -41.381 -16.3828 -74.4089
rradius 24.2966
rwrist 26.2437
rhand -7.34662 -1.99934
rfingers 7.12502
rthumb 18.5374 -31.1361
lclavicle -1.11816e-014 -5.96354e-016
lhumerus -47.136 -7.38283 91.9321
lradius 31.1772
lwrist 34.3899
lhand -13.6253 -8.67305
lfingers 7.12502
lthumb 12.4904 20.9337
rfemur -33.2325 -0.455802 29.5858
rtibia 32.867
rfoot -11.629 11.8623
rtoes -0.422145
lfemur -1.72481 -1.16459 -13.5988
ltibia 40.2583
lfoot 26.4487 -20.2962
ltoes -4.46222
111
root -5.42774 15.8662 29.6423 -170.961 -11.7337 -176.697
lowerback -4.53145 -0.0944116 2.03716
upperback -7.19 -0.725408 0.369867
thorax -4.91588 -0.705432 -0.735857
lowerneck 25.8573 -7.24046 -30.433
upperneck -13.6999 -20.5903 43.4241
head 0.532424 -14.4957 23.828
rclavicle -7.00716e-015 -5.56597e-015
rhumerus -40.9408 -15.7022 -74.9598
rradius 24.7217
rwrist 25.6658
rhand -7.50805 -2.0027
rfingers 7.12502
rthumb 18.3821 -31.1542
lclavicle -7.00716e-015 -5.56597e-015
lhumerus -47.0069 -7.56913 91.9428
lradius 31.3111
lwrist 34.4108
lhand -13.5576 -8.69289
lfingers 7.12502
lthumb 12.5557 20.9098
rfemur -32.4777 -0.900407 30.0773
rtibia 32.7148
rfoot -12.1535 12.1595
rtoes -0.128992
lfemur -3.03996 -0.956188 -13.053
ltibia 42.6874
lfoot 24.5969 -21.233
ltoes -4.98334
112
root -5.42839 15.8686 29.5259 -171.192 -11.8846 -176.315
lowerback -4.23017 -0.0664673 2.52831
upperback -7.15836 -0.670504 0.439182
thorax -5.05695 -0.697003 -0.935337
lowerneck 25.8733 -7.27606 -30.4308
upperneck -13.7231 -20.6332 43.432
head 0.545177 -14.517 23.8187
rclavicle 1.7344e-014 1.39149e-014
rhumerus -40.5017 -15.028 -75.482
rradius 25.1538
rwrist 25.0812
rhand -7.6692 -2.02144
rfingers 7.12502
rthumb 18.2271 -31.1874
lclavicle 1.7344e-014 1.39149e-014
lhumerus -46.8624 -7.74779 91.9522
lradius 31.4887
lwrist 34.4683
lhand -13.5272 -8.72663
lfingers 7.12502
lthumb 12.585 20.8743
rfemur -31.7202 -1.32017 30.6218
rtibia 32.5283
rfoot -12.6297 12.4625
rtoes 0.154048
lfemur -4.43026 -0.712912 -12.4659
ltibia 45.1718
lfoot 22.0973 -22.1047
ltoes -5.87742
113
root -5.43008 15.8687 29.4128 -171.434 -12.0172 -175.867
lowerback -3.91364 -0.0257638 3.09729
upperback -7.11889 -0.594275 0.525273
thorax -5.19864 -0.681916 -1.16129
lowerneck 25.9056 -7.30846 -30.4223
upperneck -13.7899 -20.6662 43.4573
head 0.541457 -14.5374 23.83
rclavicle -1.62755e-014 -3.37934e-015
rhumerus -40.0546 -14.3508 -75.9843
rradius 25.5883
rwrist 24.4761
rhand -7.84654 -2.05843
rfingers 7.12502
rthumb 18.0565 -31.2403
lclavicle -1.62755e-014 -3.37934e-015
lhumerus -46.6905 -7.91503 91.9553
lradius 31.6969
lwrist 34.5533
lhand -13.5282 -8.79296
lfingers 7.12502
lthumb 12.584 20.808
rfemur -30.9648 -1.71132 31.2183
rtibia 32.3111
rfoot -13.0563 12.7694
rtoes 0.422234
lfemur -5.8867 -0.418401 -11.8409
ltibia 47.6783
lfoot 19.0707 -22.8041
ltoes -7.42555
114
root -5.43268 15.8667 29.303 -171.682 -12.1202 -175.362
lowerback -3.59174 0.0290485 3.7321
upperback -7.06756 -0.494564 0.624072
thorax -5.33043 -0.658499 -1.41163
lowerneck 25.937 -7.34511 -30.404
upperneck -13.8882 -20.6968 43.4974
head 0.530159 -14.5593 23.8517
rclavicle 8.22472e-015 -1.21259e-014
rhumerus -39.5871 -13.6922 -76.4627
rradius 26.0112
rwrist 23.8723
rhand -8.02243 -2.13003
rfingers 7.12502
rthumb 17.8873 -31.3274
lclavicle 8.22472e-015 -1.21259e-014
lhumerus -46.4815 -8.06846 91.945
lradius 31.9339
lwrist 34.6694
lhand -13.5625 -8.87825
lfingers 7.12502
lthumb 12.551 20.7248
rfemur -30.2171 -2.07142 31.8593
rtibia 32.0671
rfoot -13.4392 13.0869
rtoes 0.666393
lfemur -7.39989 -0.0619448 -11.1874
ltibia 50.1714
lfoot 15.6635 -23.2223
ltoes -9.67576
115
root -5.43607 15.8629 29.1962 -171.922 -12.1841 -174.819
lowerback -3.27246 0.0987652 4.40749
upperback -7.00882 -0.371116 0.733433
thorax -5.45147 -0.625816 -1.67467
lowerneck 25.9682 -7.38221 -30.3826
upperneck -14.0126 -20.7227 43.5509
head 0.512266 -14.5811 23.8857
rclavicle 2.30093e-014 5.76476e-015
rhumerus -39.0979 -13.0437 -76.9168
rradius 26.4173
rwrist 23.2728
rhand -8.20375 -2.21707
rfingers 7.12502
rthumb 17.7128 -31.4303
lclavicle 2.30093e-014 5.76476e-015
lhumerus -46.2382 -8.20693 91.9278
lradius 32.2018
lwrist 34.8358
lhand -13.6507 -8.97141
lfingers 7.12502
lthumb 12.4659 20.6368
rfemur -29.4892 -2.3967 32.5269
rtibia 31.8047
rfoot -13.7857 13.4175
rtoes 0.898408
lfemur -8.96689 0.357315 -10.5254
ltibia 52.6177
lfoot 11.9864 -23.2659
ltoes -12.6833
